<?xml version="1.0" encoding="utf-8"?><svg id="call" preserveAspectRatio="xMidYMid meet" xmlns="http://www.w3.org/2000/svg" width="2000" height="2000" viewBox="0 0 2000 2000"><path d="M468.1415,4.4447c24.6431.0778,36.728,8.7209,44.5829,32.2591q71.9207,215.5227,143.68,431.0994c8.4924,25.5091,3.6352,39.7306-19.0043,54.8877q-93.1212,62.3439-186.412,124.4341c-24.3508,16.2627-28.8771,30.9611-18.0759,58.0886C517.1,916.6562,646.1514,1097.25,810.62,1253.3187c141.91,134.6625,301.831,241.7332,484.3083,313.902,18.8055,7.9181,44.94,1.2326,58.1412-18.6022l119.6079-149.2835c13.8878-20.828,27.9284-26.1585,51.336-18.3835,149.5031,41.3722,294.0378,74.9064,443.231,107.3545,17.0368,5.6674,27.6849,17.6768,27.6994,35.0864.0557,67.425,3.7592,135.3524-3.0381,202.1629-11.03,108.4074-70.335,187.2787-166.7,237.7349-45.3087,23.7237-94.2317,32.8848-145.1622,32.368-369.8164-3.754-704.8958-113.4448-1000.1759-336.2176Q186.7543,1287.4138,45.3182,683.7479C17.1518,562.568,4.2174,439.4965,4,315.1118,3.7548,174.1642,90.37,59.86,224.7033,17.2731,271.3939,2.4709,439.42,4.3539,468.1415,4.4447Z"/></svg>