<?xml version="1.0" encoding="utf-8"?><svg id="Layer_3_copy_2" preserveAspectRatio="xMidYMid meet" data-name="Layer 3 copy 2" xmlns="http://www.w3.org/2000/svg" width="2000" height="1500" viewBox="0 0 2000 1500"><path d="M1996.3328,151.4968a107.384,107.384,0,0,0-3.3688-26.8652c-18.9931-73.32-80.5274-120.6021-162.8887-120.7044Q1229.9945,3.1819,629.9124,3.99C530.3857,4.16,463.2855,73.6671,463.1113,173.8158q-.5153,296.1182-.0056,592.2377c.1634,99.56,70.8165,169.1055,170.7086,169.1123q441.5256.03,883.0511-.1479a89.6425,89.6425,0,0,1,39.69,8.645c94.2863,44.3491,188.906,87.9916,283.4869,131.7139,22.0571,10.1965,44.37,19.8406,68.43,30.5706,0-57.9078.493-112.3233-.33-166.7191-.2187-14.46,3.5522-23.1568,16.3743-31.31,32.0959-20.41,53.7757-48.07,65.0823-82.2543a143.7764,143.7764,0,0,0,7.1064-45.2457Q1996.5189,465.9574,1996.3328,151.4968ZM983.9245,422.2407a78.33,78.33,0,1,1,78.33-78.33A78.33,78.33,0,0,1,983.9245,422.2407Zm244.4682,0a78.33,78.33,0,1,1,78.33-78.33A78.33,78.33,0,0,1,1228.3927,422.2407Zm249.4985,0a78.33,78.33,0,1,1,78.33-78.33A78.33,78.33,0,0,1,1477.8912,422.2407Z"/><path d="M1542.3036,1100.9034c.4633-31.15-8.982-40.7636-40.9113-42.9557-8.0983-.556-16.2582-.2768-24.39-.2771q-424.581-.0162-849.1621-.042c-161.4433-.0674-287.4235-125.8014-287.4278-286.4973-.0033-118.6467-.394-237.296.4314-355.9371.1211-17.4169-4.8094-21.5613-21.61-21.1458-47.1468,1.166-94.3413.3911-141.517.41C77.6363,394.4973,7.9106,460.8743,7.3474,560.72c-1.1229,199.0926-.4789,398.1961-.2469,597.2948.07,60.2163,24.4347,108.3444,75.6485,141.0658,11.2133,7.1643,14.6238,14.6159,14.4765,27.2837-.65,55.8828-.2809,111.7774-.2809,169.992,8.5413-3.7616,15.08-6.5257,21.5236-9.496q165.0889-76.1056,330.0457-152.495a95.54,95.54,0,0,1,41.8605-9.2665q442.8816.3953,885.7638.1748c80.7978-.0147,146.5311-51.8211,163.1712-129.625C1545.9775,1164.47,1541.8333,1132.5073,1542.3036,1100.9034Z"/></svg>