<svg id="eBGQAIoRZCl1" xmlns="http://www.w3.org/2000/svg" xmlns:xlink="http://www.w3.org/1999/xlink" viewBox="0 0 3000 2500" shape-rendering="geometricPrecision" text-rendering="geometricPrecision"><style><![CDATA[#eBGQAIoRZCl2_ts {animation: eBGQAIoRZCl2_ts__ts 1000ms linear infinite normal forwards}@keyframes eBGQAIoRZCl2_ts__ts { 0% {transform: translate(1500px,1250px) scale(1,1)} 20% {transform: translate(1500px,1250px) scale(1.25,1.25)} 40% {transform: translate(1500px,1250px) scale(1.5,1.5)} 60% {transform: translate(1500px,1250px) scale(1,1)} 80% {transform: translate(1500px,1250px) scale(1.25,1.25)} 100% {transform: translate(1500px,1250px) scale(1.5,1.5)}} #eBGQAIoRZCl2 {animation: eBGQAIoRZCl2_c_o 1000ms linear infinite normal forwards}@keyframes eBGQAIoRZCl2_c_o { 0% {opacity: 0} 20% {opacity: 0.65} 40% {opacity: 0} 60% {opacity: 0} 80% {opacity: 0.65} 100% {opacity: 0}}]]></style><g id="eBGQAIoRZCl2_ts" transform="translate(1500,1250) scale(1,1)"><g id="eBGQAIoRZCl2" transform="translate(-1001.706113,-749.962987)" opacity="0"><path id="eBGQAIoRZCl3" d="M1996.3328,151.4968C1996.347843,142.435466,1995.215914,133.408665,1992.964,124.6316C1973.9709,51.3116,1912.4366,4.0295,1830.0753,3.9272Q1229.9945,3.1819,629.9124,3.99C530.3857,4.16,463.2855,73.6671,463.1113,173.8158Q462.596,469.934,463.1057,766.0535C463.2691,865.6135,533.9222,935.159,633.8143,935.1658Q1075.3399,935.1958,1516.8654,935.0179C1530.58261,934.824595,1544.16119,937.782187,1556.5554,943.6629C1650.8417,988.012,1745.4614,1031.6545,1840.0423,1075.3768C1862.0994,1085.5733,1884.4123,1095.2174,1908.4723,1105.9474C1908.4723,1048.0396,1908.9653,993.6241,1908.1423,939.2283C1907.9236,924.7683,1911.6945,916.0715,1924.5166,907.9183C1956.6125,887.5083,1978.2923,859.8483,1989.5989,825.664C1994.370105,811.058704,1996.76934,795.783032,1996.7053,780.4183Q1996.5189,465.9574,1996.3328,151.4968ZM983.9245,422.2407C940.664036,422.2407,905.5945,387.171164,905.5945,343.9107C905.5945,300.650236,940.664036,265.5807,983.9245,265.5807C1027.184964,265.5807,1062.2545,300.650236,1062.2545,343.9107C1062.2545,364.685108,1054.001899,384.60865,1039.312174,399.298374C1024.62245,413.988099,1004.698908,422.2407,983.9245,422.2407ZM1228.3927,422.2407C1196.711172,422.2407,1168.149212,403.156208,1156.025216,373.886293C1143.90122,344.616378,1150.602803,310.925249,1173.005026,288.523026C1195.407249,266.120803,1229.098378,259.41922,1258.368293,271.543216C1287.638208,283.667212,1306.7227,312.229172,1306.7227,343.9107C1306.7227,387.171164,1271.653164,422.2407,1228.3927,422.2407ZM1477.8912,422.2407C1446.209672,422.2407,1417.647712,403.156208,1405.523716,373.886293C1393.39972,344.616378,1400.101303,310.925249,1422.503526,288.523026C1444.905749,266.120803,1478.596878,259.41922,1507.866793,271.543216C1537.136708,283.667212,1556.2212,312.229172,1556.2212,343.9107C1556.2212,387.171164,1521.151664,422.2407,1477.8912,422.2407Z" fill="rgb(0,0,0)" stroke="none" stroke-width="1"/><path id="eBGQAIoRZCl4" d="M1542.3036,1100.9034C1542.7669,1069.7534,1533.3216,1060.1398,1501.3923,1057.9477C1493.294,1057.3917,1485.1341,1057.6709,1477.0023,1057.6706Q1052.4213,1057.6544,627.8402,1057.6286C466.3969,1057.5612,340.4167,931.8272,340.4124,771.1313C340.4091,652.4846,340.0184,533.8353,340.8438,415.1942C340.9649,397.7773,336.0344,393.6329,319.2338,394.0484C272.087,395.2144,224.8925,394.4395,177.7168,394.4584C77.6363,394.4973,7.9106,460.8743,7.3474,560.72C6.2245,759.8126,6.8685,958.9161,7.1005,1158.0148C7.1705,1218.2311,31.5352,1266.3592,82.749,1299.0806C93.9623,1306.2449,97.3728,1313.6965,97.2255,1326.3643C96.5755,1382.2471,96.9446,1438.1417,96.9446,1496.3563C105.4859,1492.5947,112.0246,1489.8306,118.4682,1486.8603Q283.5571,1410.7547,448.5139,1334.3653C461.585202,1328.145085,475.899075,1324.976478,490.3744,1325.0988Q933.256,1325.4941,1376.1382,1325.2736C1456.936,1325.2589,1522.6693,1273.4525,1539.3094,1195.6486C1545.9775,1164.47,1541.8333,1132.5073,1542.3036,1100.9034Z" fill="rgb(0,0,0)" stroke="none" stroke-width="1"/></g></g></svg>